HIERARCHY
ROOT root
{
	OFFSET	0	13.1	24.9
	CHANNELS 6  Xposition Yposition Zposition Xrotation Yrotation Zrotation
	JOINT spine_1
	{
		OFFSET	0	9.99999	0
		CHANNELS 3  Xrotation Yrotation Zrotation
		JOINT spine_2
		{
			OFFSET	0	112	-10
			CHANNELS 3  Xrotation Yrotation Zrotation
			JOINT spine_3
			{
				OFFSET	0	206.5	19.3
				CHANNELS 3  Xrotation Yrotation Zrotation
				JOINT spine_4
				{
					OFFSET	0	110.4	14.6
					CHANNELS 3  Xrotation Yrotation Zrotation
					JOINT neck_1
					{
						OFFSET	0	71.8	-50.3
						CHANNELS 3  Xrotation Yrotation Zrotation
						JOINT neck_2
						{
							OFFSET	0	86.2	-25.8
							CHANNELS 3  Xrotation Yrotation Zrotation
							JOINT head_ee
							{
								OFFSET	0	179.8	-8.7
								CHANNELS 3  Xrotation Yrotation Zrotation
								End Site
								{
									OFFSET	1	0	0
								}
							}
						}
					}
					JOINT left_clavicle
					{
						OFFSET	-43.2	22.4	-70.8
						CHANNELS 3  Xrotation Yrotation Zrotation
						JOINT left_shoulder
						{
							OFFSET	-93.9	-5.79999	48.7
							CHANNELS 3  Xrotation Yrotation Zrotation
							JOINT left_elbow
							{
								OFFSET	-291.4	-30.8	15.2
								CHANNELS 3  Xrotation Yrotation Zrotation
								JOINT left_lowarm_twist
								{
									OFFSET	-110.7	-3.89999	13.6
									CHANNELS 3  Xrotation Yrotation Zrotation
									JOINT left_hand
									{
										OFFSET	-110.7	-3.89999	13.6
										CHANNELS 3  Xrotation Yrotation Zrotation
										JOINT left_ee
										{
											OFFSET	-80.8	-5.10001	12.1
											CHANNELS 3  Xrotation Yrotation Zrotation
											End Site
											{
												OFFSET	1	0	0
											}
										}
									}
								}
							}
						}
					}
					JOINT right_clavicle
					{
						OFFSET	43.2	22.4	-70.8
						CHANNELS 3  Xrotation Yrotation Zrotation
						JOINT right_shoulder
						{
							OFFSET	93.9	-5.79999	48.7
							CHANNELS 3  Xrotation Yrotation Zrotation
							JOINT right_elbow
							{
								OFFSET	291.4	-30.8	15.2
								CHANNELS 3  Xrotation Yrotation Zrotation
								JOINT right_lowarm_twist
								{
									OFFSET	110.7	-3.89999	13.6
									CHANNELS 3  Xrotation Yrotation Zrotation
									JOINT right_hand
									{
										OFFSET	110.7	-3.89999	13.6
										CHANNELS 3  Xrotation Yrotation Zrotation
										JOINT right_ee
										{
											OFFSET	80.8	-5.10001	12.1
											CHANNELS 3  Xrotation Yrotation Zrotation
											End Site
											{
												OFFSET	1	0	0
											}
										}
									}
								}
							}
						}
					}
				}
			}
		}
	}
	JOINT left_hip
	{
		OFFSET	-82.8	-127.5	0.300001
		CHANNELS 3  Xrotation Yrotation Zrotation
		JOINT left_knee
		{
			OFFSET	-28.2	-396.7	2.2
			CHANNELS 3  Xrotation Yrotation Zrotation
			JOINT left_ankle
			{
				OFFSET	-11.7	-411.3	35.4
				CHANNELS 3  Xrotation Yrotation Zrotation
				JOINT left_toes
				{
					OFFSET	0	-60	-88.6
					CHANNELS 3  Xrotation Yrotation Zrotation
					JOINT left_foot_ee
					{
						OFFSET	-22.5	-16.5	-42.2
						CHANNELS 3  Xrotation Yrotation Zrotation
						End Site
						{
							OFFSET	1	0	0
						}
					}
				}
			}
		}
	}
	JOINT right_hip
	{
		OFFSET	82.8	-127.5	0.300001
		CHANNELS 3  Xrotation Yrotation Zrotation
		JOINT right_knee
		{
			OFFSET	28.2	-396.7	2.2
			CHANNELS 3  Xrotation Yrotation Zrotation
			JOINT right_ankle
			{
				OFFSET	11.7	-411.3	35.4
				CHANNELS 3  Xrotation Yrotation Zrotation
				JOINT right_toes
				{
					OFFSET	0	-60	-88.6
					CHANNELS 3  Xrotation Yrotation Zrotation
					JOINT right_foot_ee
					{
						OFFSET	22.5	-16.5	-42.2
						CHANNELS 3  Xrotation Yrotation Zrotation
						End Site
						{
							OFFSET	1	0	0
						}
					}
				}
			}
		}
	}
}
MOTION
Frames: 10
Frame Time: 0.02
2711.75301246 772.316 -1709.54884814 21.6437809886 75.6343428188 -19.0000978389 -5.82355 -0.0906178 -1.01238 -5.82299 -0.0260171 -1.0161 -5.82144 0.288494 -0.974632 -5.82274 0.130956 -1.00796 1.92983 6.83831 6.30679 2.04219 6.70126 7.49861 -0.0 0.0 -0.0 9.95665 10.2273 18.7521 26.3311 -23.3069 68.4217 1.28148 -32.4062 0.372392 -13.5277 -0.66795 1.59147 -0.578722 15.8028 2.88009 -0.0 0.0 -0.0 10.7204 -9.22664 -20.3106 -4.16068 12.9687 -60.926 0.701464 19.1616 -0.118403 13.0064 -0.273681 1.63536 4.30569 -31.0078 -37.8055 0.0 0.0 0.0 3.32066 0.127913 -1.04551 -19.7648 0.298363 3.00337 41.2831 8.32844 -4.97637 40.114 -0.0 -0.0 -0.0 0.0 -0.0 14.2191 5.35031 -8.05733 -63.7349 2.61649 -8.92364 35.119 -24.9746 4.67383 11.6948 -0.0 -0.0 0.0 0.0 0.0 
2711.26037397 772.316 -1703.37981228 22.7941767579 76.3372788686 -20.185759857 -5.82355 -0.0906178 -1.01238 -5.82299 -0.0260171 -1.0161 -5.82144 0.288494 -0.974632 -5.82274 0.130956 -1.00796 1.92983 6.83831 6.30679 2.04219 6.70126 7.49861 -0.0 0.0 -0.0 9.95665 10.2273 18.7521 26.3311 -23.3069 68.4217 1.28148 -32.4062 0.372392 -13.5277 -0.66795 1.59147 -0.578722 15.8028 2.88009 -0.0 0.0 -0.0 10.7204 -9.22664 -20.3106 -4.16068 12.9687 -60.926 0.701464 19.1616 -0.118403 13.0064 -0.273681 1.63536 4.30569 -31.0078 -37.8055 0.0 0.0 0.0 3.32066 0.127913 -1.04551 -19.7648 0.298363 3.00337 41.2831 8.32844 -4.97637 40.114 -0.0 -0.0 -0.0 0.0 -0.0 14.2191 5.35031 -8.05733 -63.7349 2.61649 -8.92364 35.119 -24.9746 4.67383 11.6948 -0.0 -0.0 0.0 0.0 0.0 
2695.64788388 773.936 -1684.34075155 22.8422123367 79.2198118371 -20.2205397537 -5.3342 -0.0182764 -1.12788 -5.33349 0.0535261 -1.12676 -5.33341 0.389293 -1.05874 -5.33491 0.217211 -1.10692 3.14018 6.91736 4.73433 3.22904 7.99444 5.75919 -0.0 0.0 -0.0 10.1846 11.4627 19.0297 27.8591 -23.9049 68.9781 1.40335 -34.8043 0.439861 -12.983 -0.633887 1.53067 -0.723656 15.5107 1.86362 -0.0 0.0 -0.0 10.4622 -12.6333 -19.3857 -5.81475 12.3461 -60.6744 0.759381 20.615 -0.138108 11.8418 -0.264395 1.4869 4.08857 -30.8019 -36.2717 0.0 0.0 0.0 2.53245 1.71548 -1.66048 -18.246 0.31239 2.77077 41.4883 5.59992 -4.98466 40.1568 -0.0 -0.0 -0.0 0.0 -0.0 16.04 7.14886 -9.20415 -62.5361 2.47997 -8.79877 38.167 -21.0588 4.88001 13.1885 -0.0 -0.0 0.0 0.0 0.0 
2679.6511983 777.492 -1648.97283397 26.3067966085 83.456844733 -23.5328662658 -4.85503 0.0126769 -1.31191 -4.85408 0.0961242 -1.30845 -4.85491 0.474291 -1.22325 -4.85689 0.275166 -1.2828 3.67038 4.70567 5.34187 3.74077 3.5522 6.3027 -0.0 0.0 -0.0 10.2429 11.0163 19.1923 29.7984 -24.6282 69.71 1.49361 -36.4951 0.492474 -12.1197 -0.581082 1.43363 -0.115952 14.2646 5.12474 -0.0 0.0 -0.0 10.2718 -14.8954 -18.7229 -7.02728 11.9434 -60.0564 0.735182 20.011 -0.129707 9.30338 -0.233712 1.16414 3.53192 -30.457 -32.4903 0.0 0.0 0.0 2.17172 0.252879 -1.87571 -16.973 0.319394 2.57558 41.1833 5.60034 -4.95912 40.1474 -0.0 -0.0 -0.0 0.0 -0.0 17.9705 7.64309 -9.59544 -59.4161 2.13727 -8.46081 40.4041 -18.9296 5.04143 13.4302 -0.0 -0.0 0.0 0.0 0.0 
2630.55411098 782.743 -1610.73012326 45.2440235574 87.4016409157 -41.9780479914 -4.1677 -0.137053 -1.85609 -4.16578 -0.0186879 -1.86105 -4.16235 0.504403 -1.79151 -4.16676 0.215189 -1.84866 5.27602 5.81672 6.33319 5.37193 4.38274 7.53609 -0.0 0.0 -0.0 10.6258 10.9379 19.9154 33.5562 -26.097 70.6917 1.78897 -41.5436 0.678605 -8.39635 -0.370369 1.00654 0.970736 6.90338 9.24021 -0.0 0.0 -0.0 9.71345 -20.2467 -16.9591 -11.5718 9.56629 -58.1552 0.858989 23.0504 -0.17516 6.57089 -0.184739 0.818558 2.6321 -29.9173 -26.7149 0.0 0.0 0.0 -1.38807 3.55976 -4.25673 -13.8679 0.31828 2.09922 40.1 1.84636 -4.87354 39.2262 -0.0 -0.0 -0.0 0.0 -0.0 30.3181 8.0849 -8.04131 -49.6792 1.19435 -7.29568 40.3568 -9.72972 4.90568 11.366 -0.0 -0.0 0.0 0.0 0.0 
2611.89690688 784.485 -1599.81909596 122.930965167 88.1548715238 -119.036063561 -3.97231 -0.201825 -1.96475 -3.97016 -0.0764185 -1.9736 -3.96434 0.47395 -1.9174 -3.96943 0.165247 -1.96816 6.05848 6.04398 5.30266 6.13416 5.57249 6.37873 -0.0 0.0 -0.0 10.5708 10.9912 19.8057 34.5526 -26.71 70.9245 1.9202 -43.563 0.767364 -7.25756 -0.311526 0.873313 1.5641 4.71637 12.3597 -0.0 0.0 -0.0 9.4811 -21.6614 -16.3654 -13.5594 8.78919 -57.5528 0.89796 23.9803 -0.19071 6.4591 -0.182384 0.804472 2.42785 -29.8647 -25.4614 0.0 0.0 0.0 -2.71025 3.69453 -5.0296 -13.5254 0.316577 2.0467 40.9285 2.25065 -4.94223 39.9259 -0.0 -0.0 -0.0 0.0 -0.0 32.2924 8.45765 -7.14032 -46.2891 0.91455 -6.85522 37.6566 -6.85756 4.65089 11.8737 -0.0 -0.0 0.0 0.0 0.0 
2612.44199336 784.485 -1595.52014634 132.896720997 87.8859039788 -129.007713364 -3.97231 -0.201825 -1.96475 -3.97016 -0.0764185 -1.9736 -3.96434 0.47395 -1.9174 -3.96943 0.165247 -1.96816 6.05848 6.04398 5.30266 6.13416 5.57249 6.37873 -0.0 0.0 -0.0 10.5708 10.9912 19.8057 34.5526 -26.71 70.9245 1.9202 -43.563 0.767364 -7.25756 -0.311526 0.873313 1.5641 4.71637 12.3597 -0.0 0.0 -0.0 9.4811 -21.6614 -16.3654 -13.5594 8.78919 -57.5528 0.89796 23.9803 -0.19071 6.4591 -0.182384 0.804472 2.42785 -29.8647 -25.4614 0.0 0.0 0.0 -2.71025 3.69453 -5.0296 -13.5254 0.316577 2.0467 40.9285 2.25065 -4.94223 39.9259 -0.0 -0.0 -0.0 0.0 -0.0 32.2924 8.45765 -7.14032 -46.2891 0.91455 -6.85522 37.6566 -6.85756 4.65089 11.8737 -0.0 -0.0 0.0 0.0 0.0 
2594.25644479 782.377 -1595.99476927 128.337525963 86.9218127748 -124.144305332 -4.05001 -0.291477 -2.12515 -4.04751 -0.15569 -2.13938 -4.03774 0.446441 -2.09809 -4.04387 0.109565 -2.14224 5.21949 5.66671 4.17607 5.27971 6.03618 5.05338 -0.0 0.0 -0.0 10.3881 11.0614 19.4563 35.6535 -26.9291 71.7504 2.11952 -46.3901 0.908296 -5.66352 -0.233642 0.684945 2.0754 3.68691 15.4456 -0.0 0.0 -0.0 9.1617 -22.1884 -15.7926 -15.1888 8.67544 -57.3403 1.00275 26.4146 -0.235333 6.86559 -0.190813 0.855713 2.53762 -29.9226 -26.1384 0.0 0.0 0.0 -4.0701 5.81579 -5.79073 -15.6709 0.32207 2.37582 41.0006 3.24728 -4.94518 38.3034 -0.0 -0.0 -0.0 0.0 -0.0 33.8604 8.96395 -6.31964 -43.1742 0.680958 -6.43683 33.9971 -6.36165 4.30031 12.5789 -0.0 -0.0 0.0 0.0 0.0 
2594.18239238 782.377 -1596.58597484 127.479780709 86.9575242359 -123.285335165 -4.05001 -0.291477 -2.12515 -4.04751 -0.15569 -2.13938 -4.03774 0.446441 -2.09809 -4.04387 0.109565 -2.14224 5.21949 5.66671 4.17607 5.27971 6.03618 5.05338 -0.0 0.0 -0.0 10.3881 11.0614 19.4563 35.6535 -26.9291 71.7504 2.11952 -46.3901 0.908296 -5.66352 -0.233642 0.684945 2.0754 3.68691 15.4456 -0.0 0.0 -0.0 9.1617 -22.1884 -15.7926 -15.1888 8.67544 -57.3403 1.00275 26.4146 -0.235333 6.86559 -0.190813 0.855713 2.53762 -29.9226 -26.1384 0.0 0.0 0.0 -4.0701 5.81579 -5.79073 -15.6709 0.32207 2.37582 41.0006 3.24728 -4.94518 38.3034 -0.0 -0.0 -0.0 0.0 -0.0 33.8604 8.96395 -6.31964 -43.1742 0.680958 -6.43683 33.9971 -6.36165 4.30031 12.5789 -0.0 -0.0 0.0 0.0 0.0 
2578.27931885 784.442 -1600.34438926 132.287248598 87.1769598275 -127.810889852 -3.86611 -0.387314 -2.26772 -3.86328 -0.242267 -2.28776 -3.84907 0.39713 -2.26603 -3.85623 0.0343679 -2.30029 6.08617 5.92769 3.77967 6.14908 6.72532 4.60925 -0.0 0.0 -0.0 10.2265 11.3142 19.1253 36.3688 -27.0862 72.8031 2.2208 -47.7231 0.982439 -4.91576 -0.198923 0.595861 2.33722 1.77742 16.519 -0.0 0.0 -0.0 9.117 -22.497 -15.6769 -15.7897 8.34167 -57.0652 1.01642 26.7248 -0.241446 6.11447 -0.174954 0.761075 2.15919 -29.7204 -23.8201 0.0 0.0 0.0 -4.69572 6.62436 -6.30747 -15.7269 0.322048 2.38441 40.9312 4.19295 -4.93775 37.8779 -0.0 -0.0 -0.0 0.0 -0.0 34.1298 9.63311 -5.22729 -35.1264 0.186168 -5.30408 32.2662 -6.9444 4.12615 10.6213 -0.0 -0.0 0.0 0.0 0.0 
